<svg xmlns="http://www.w3.org/2000/svg" xmlns:xlink="http://www.w3.org/1999/xlink" width="509.5" height="592" viewBox="0 0 509.5 592">
  <defs>
    <filter id="Rectangle_5" x="19.5" y="0" width="490" height="592" filterUnits="userSpaceOnUse">
      <feOffset dx="7" dy="7" input="SourceAlpha"/>
      <feGaussianBlur stdDeviation="7.5" result="blur"/>
      <feFlood flood-opacity="0.161"/>
      <feComposite operator="in" in2="blur"/>
      <feComposite in="SourceGraphic"/>
    </filter>
  </defs>
  <g id="Component_7_1" data-name="Component 7 – 1" transform="translate(0 15.5)">
    <g transform="matrix(1, 0, 0, 1, 0, -15.5)" filter="url(#Rectangle_5)">
      <g id="Rectangle_5-2" data-name="Rectangle 5" transform="translate(35 15.5)" fill="#fff" stroke="#707070" stroke-width="1">
        <rect width="445" height="547" rx="45" stroke="none"/>
        <rect x="0.5" y="0.5" width="444" height="546" rx="44.5" fill="none"/>
      </g>
    </g>
    <g id="Ellipse_2" data-name="Ellipse 2" transform="translate(0 226)" fill="#fff" stroke="#dcdcdc" stroke-width="3">
      <circle cx="35" cy="35" r="35" stroke="none"/>
      <circle cx="35" cy="35" r="33.5" fill="none"/>
    </g>
    <g id="Ellipse_3" data-name="Ellipse 3" transform="translate(0 359)" fill="#fff" stroke="#dcdcdc" stroke-width="3">
      <circle cx="35" cy="35" r="35" stroke="none"/>
      <circle cx="35" cy="35" r="33.5" fill="none"/>
    </g>
    <circle id="Ellipse_1" data-name="Ellipse 1" cx="35" cy="35" r="35" transform="translate(0 93)" fill="#1fc41f"/>
    <path id="Path_3" data-name="Path 3" d="M1203.974,312l16.428,20.543,29.869-33.1" transform="translate(-1192.123 -187.99)" fill="none" stroke="#fff" stroke-width="4"/>
    <g id="Group_1" data-name="Group 1" transform="translate(-1223 -197)">
      <rect id="Rectangle_6" data-name="Rectangle 6" width="312" height="23" rx="11.5" transform="translate(1325 296)" fill="#f5d5d5"/>
      <rect id="Rectangle_7" data-name="Rectangle 7" width="75" height="23" rx="11.5" transform="translate(1325 331)" fill="#f5d5d5"/>
      <circle id="Ellipse_4" data-name="Ellipse 4" cx="12" cy="12" r="12" transform="translate(1613 331)" fill="#f5d5d5"/>
      <circle id="Ellipse_5" data-name="Ellipse 5" cx="12" cy="12" r="12" transform="translate(1579 331)" fill="#f5d5d5"/>
    </g>
    <g id="Group_2" data-name="Group 2" transform="translate(-1223 -64)">
      <rect id="Rectangle_6-2" data-name="Rectangle 6" width="312" height="23" rx="11.5" transform="translate(1325 296)" fill="#d5def5"/>
      <rect id="Rectangle_7-2" data-name="Rectangle 7" width="75" height="23" rx="11.5" transform="translate(1325 331)" fill="#d5def5"/>
      <circle id="Ellipse_4-2" data-name="Ellipse 4" cx="12" cy="12" r="12" transform="translate(1613 331)" fill="#d5def5"/>
      <circle id="Ellipse_5-2" data-name="Ellipse 5" cx="12" cy="12" r="12" transform="translate(1579 331)" fill="#d5def5"/>
    </g>
    <g id="Group_3" data-name="Group 3" transform="translate(-1223 69)">
      <rect id="Rectangle_6-3" data-name="Rectangle 6" width="312" height="23" rx="11.5" transform="translate(1325 296)" fill="#ecd5f5"/>
      <rect id="Rectangle_7-3" data-name="Rectangle 7" width="75" height="23" rx="11.5" transform="translate(1325 331)" fill="#ecd5f5"/>
      <circle id="Ellipse_4-3" data-name="Ellipse 4" cx="12" cy="12" r="12" transform="translate(1613 331)" fill="#ecd5f5"/>
      <circle id="Ellipse_5-3" data-name="Ellipse 5" cx="12" cy="12" r="12" transform="translate(1579 331)" fill="#ecd5f5"/>
    </g>
  </g>
</svg>
