<svg id="Component_8_1" data-name="Component 8 – 1" xmlns="http://www.w3.org/2000/svg" xmlns:xlink="http://www.w3.org/1999/xlink" width="242" height="189" viewBox="0 0 242 189">
  <defs>
    <clipPath id="clip-path">
      <rect width="242" height="189" fill="none"/>
    </clipPath>
  </defs>
  <g id="Repeat_Grid_1" data-name="Repeat Grid 1" clip-path="url(#clip-path)">
    <g transform="translate(-79 -952)">
      <g id="Ellipse_6" data-name="Ellipse 6" transform="translate(88 961)" fill="#fff" stroke="#707070" stroke-width="1">
        <circle cx="10" cy="10" r="10" stroke="none"/>
        <circle cx="10" cy="10" r="9.5" fill="none"/>
      </g>
    </g>
    <g transform="translate(-30 -952)">
      <g id="Ellipse_6-2" data-name="Ellipse 6" transform="translate(88 961)" fill="#fff" stroke="#707070" stroke-width="1">
        <circle cx="10" cy="10" r="10" stroke="none"/>
        <circle cx="10" cy="10" r="9.5" fill="none"/>
      </g>
    </g>
    <g transform="translate(19 -952)">
      <g id="Ellipse_6-3" data-name="Ellipse 6" transform="translate(88 961)" fill="#fff" stroke="#707070" stroke-width="1">
        <circle cx="10" cy="10" r="10" stroke="none"/>
        <circle cx="10" cy="10" r="9.5" fill="none"/>
      </g>
    </g>
    <g transform="translate(68 -952)">
      <g id="Ellipse_6-4" data-name="Ellipse 6" transform="translate(88 961)" fill="#fff" stroke="#707070" stroke-width="1">
        <circle cx="10" cy="10" r="10" stroke="none"/>
        <circle cx="10" cy="10" r="9.5" fill="none"/>
      </g>
    </g>
    <g transform="translate(117 -952)">
      <g id="Ellipse_6-5" data-name="Ellipse 6" transform="translate(88 961)" fill="#fff" stroke="#707070" stroke-width="1">
        <circle cx="10" cy="10" r="10" stroke="none"/>
        <circle cx="10" cy="10" r="9.5" fill="none"/>
      </g>
    </g>
    <g transform="translate(-79 -903)">
      <g id="Ellipse_6-6" data-name="Ellipse 6" transform="translate(88 961)" fill="#fff" stroke="#707070" stroke-width="1">
        <circle cx="10" cy="10" r="10" stroke="none"/>
        <circle cx="10" cy="10" r="9.5" fill="none"/>
      </g>
    </g>
    <g transform="translate(-30 -903)">
      <g id="Ellipse_6-7" data-name="Ellipse 6" transform="translate(88 961)" fill="#fff" stroke="#707070" stroke-width="1">
        <circle cx="10" cy="10" r="10" stroke="none"/>
        <circle cx="10" cy="10" r="9.5" fill="none"/>
      </g>
    </g>
    <g transform="translate(19 -903)">
      <g id="Ellipse_6-8" data-name="Ellipse 6" transform="translate(88 961)" fill="#fff" stroke="#707070" stroke-width="1">
        <circle cx="10" cy="10" r="10" stroke="none"/>
        <circle cx="10" cy="10" r="9.5" fill="none"/>
      </g>
    </g>
    <g transform="translate(68 -903)">
      <g id="Ellipse_6-9" data-name="Ellipse 6" transform="translate(88 961)" fill="#fff" stroke="#707070" stroke-width="1">
        <circle cx="10" cy="10" r="10" stroke="none"/>
        <circle cx="10" cy="10" r="9.5" fill="none"/>
      </g>
    </g>
    <g transform="translate(117 -903)">
      <g id="Ellipse_6-10" data-name="Ellipse 6" transform="translate(88 961)" fill="#fff" stroke="#707070" stroke-width="1">
        <circle cx="10" cy="10" r="10" stroke="none"/>
        <circle cx="10" cy="10" r="9.5" fill="none"/>
      </g>
    </g>
    <g transform="translate(-79 -854)">
      <g id="Ellipse_6-11" data-name="Ellipse 6" transform="translate(88 961)" fill="#fff" stroke="#707070" stroke-width="1">
        <circle cx="10" cy="10" r="10" stroke="none"/>
        <circle cx="10" cy="10" r="9.5" fill="none"/>
      </g>
    </g>
    <g transform="translate(-30 -854)">
      <g id="Ellipse_6-12" data-name="Ellipse 6" transform="translate(88 961)" fill="#fff" stroke="#707070" stroke-width="1">
        <circle cx="10" cy="10" r="10" stroke="none"/>
        <circle cx="10" cy="10" r="9.5" fill="none"/>
      </g>
    </g>
    <g transform="translate(19 -854)">
      <g id="Ellipse_6-13" data-name="Ellipse 6" transform="translate(88 961)" fill="#fff" stroke="#707070" stroke-width="1">
        <circle cx="10" cy="10" r="10" stroke="none"/>
        <circle cx="10" cy="10" r="9.5" fill="none"/>
      </g>
    </g>
    <g transform="translate(68 -854)">
      <g id="Ellipse_6-14" data-name="Ellipse 6" transform="translate(88 961)" fill="#fff" stroke="#707070" stroke-width="1">
        <circle cx="10" cy="10" r="10" stroke="none"/>
        <circle cx="10" cy="10" r="9.5" fill="none"/>
      </g>
    </g>
    <g transform="translate(117 -854)">
      <g id="Ellipse_6-15" data-name="Ellipse 6" transform="translate(88 961)" fill="#fff" stroke="#707070" stroke-width="1">
        <circle cx="10" cy="10" r="10" stroke="none"/>
        <circle cx="10" cy="10" r="9.5" fill="none"/>
      </g>
    </g>
    <g transform="translate(-79 -805)">
      <g id="Ellipse_6-16" data-name="Ellipse 6" transform="translate(88 961)" fill="#fff" stroke="#707070" stroke-width="1">
        <circle cx="10" cy="10" r="10" stroke="none"/>
        <circle cx="10" cy="10" r="9.5" fill="none"/>
      </g>
    </g>
    <g transform="translate(-30 -805)">
      <g id="Ellipse_6-17" data-name="Ellipse 6" transform="translate(88 961)" fill="#fff" stroke="#707070" stroke-width="1">
        <circle cx="10" cy="10" r="10" stroke="none"/>
        <circle cx="10" cy="10" r="9.5" fill="none"/>
      </g>
    </g>
    <g transform="translate(19 -805)">
      <g id="Ellipse_6-18" data-name="Ellipse 6" transform="translate(88 961)" fill="#fff" stroke="#707070" stroke-width="1">
        <circle cx="10" cy="10" r="10" stroke="none"/>
        <circle cx="10" cy="10" r="9.5" fill="none"/>
      </g>
    </g>
    <g transform="translate(68 -805)">
      <g id="Ellipse_6-19" data-name="Ellipse 6" transform="translate(88 961)" fill="#fff" stroke="#707070" stroke-width="1">
        <circle cx="10" cy="10" r="10" stroke="none"/>
        <circle cx="10" cy="10" r="9.5" fill="none"/>
      </g>
    </g>
    <g transform="translate(117 -805)">
      <g id="Ellipse_6-20" data-name="Ellipse 6" transform="translate(88 961)" fill="#fff" stroke="#707070" stroke-width="1">
        <circle cx="10" cy="10" r="10" stroke="none"/>
        <circle cx="10" cy="10" r="9.5" fill="none"/>
      </g>
    </g>
  </g>
</svg>
